<?xml version="1.0" encoding="utf-8"?>
<!-- Generator: Adobe Illustrator 16.0.3, SVG Export Plug-In . SVG Version: 6.00 Build 0)  -->
<!DOCTYPE svg PUBLIC "-//W3C//DTD SVG 1.1//EN" "http://www.w3.org/Graphics/SVG/1.1/DTD/svg11.dtd">
<svg version="1.1" id="map" xmlns="http://www.w3.org/2000/svg" xmlns:xlink="http://www.w3.org/1999/xlink" x="0px" y="0px"
	 width="72px" height="72px" viewBox="0 0 72 72" enable-background="new 0 0 72 72" xml:space="preserve">
<g>
	<g>
		<path d="M30.027,68.259h-2.879l-0.084-1.342c-0.428-8.497-5.112-22.711-12.223-31.795c-4.41-5.66-5.979-10.76-5.979-13.645
			c0-10.994,8.848-19.935,19.723-19.935c10.868,0,19.702,8.941,19.702,19.935c0,2.901-1.568,8.011-5.972,13.645
			C35.21,44.213,30.526,58.42,30.097,66.909L30.027,68.259z"/>
	</g>
</g>
<path fill="#E2231A" d="M28.584,4.137c-9.445,0-17.132,7.779-17.132,17.34c0,2.343,1.425,6.901,5.436,12.047
	c6.103,7.803,10,18.35,11.696,25.921c1.696-7.571,5.586-18.118,11.682-25.922c4.003-5.124,5.428-9.691,5.428-12.046
	C45.694,11.916,38.017,4.137,28.584,4.137z"/>
<path d="M36.243,20.789c0,4.288-3.474,7.758-7.757,7.758c-4.284,0-7.764-3.47-7.764-7.758c0-4.283,3.48-7.754,7.764-7.754
	C32.77,13.035,36.243,16.505,36.243,20.789"/>
</svg>
