<?xml version="1.0" encoding="utf-8"?>
<!-- Generator: Adobe Illustrator 16.0.3, SVG Export Plug-In . SVG Version: 6.00 Build 0)  -->
<!DOCTYPE svg PUBLIC "-//W3C//DTD SVG 1.1//EN" "http://www.w3.org/Graphics/SVG/1.1/DTD/svg11.dtd">
<svg version="1.1" id="Layer_2" xmlns="http://www.w3.org/2000/svg" xmlns:xlink="http://www.w3.org/1999/xlink" x="0px" y="0px"
	 width="72px" height="72px" viewBox="0 0 72 72" enable-background="new 0 0 72 72" xml:space="preserve">
<g>
	<g>
		<g>
			<path fill="#FFFFFF" stroke="#FFFFFF" stroke-width="0.2531" stroke-miterlimit="10" d="M20.092,32.158l1.441-1.441l7.894-7.892
				l0.905-0.906l5.062-5.063c1.113-1.113,2.923-1.112,4.034,0L53.504,30.93l1.235,1.237l2.119-2.115l-0.687-0.691L41.544,14.742
				c-2.283-2.283-5.981-2.281-8.264,0l-5.063,5.062l-0.905,0.906l-8.88,8.879l-0.457,0.456L20.092,32.158z"/>
			<circle fill="#FFFFFF" stroke="#FFFFFF" stroke-width="0.2531" stroke-miterlimit="10" cx="55.784" cy="31.094" r="1.499"/>
		</g>
		<circle fill="#FFFFFF" stroke="#FFFFFF" stroke-width="0.2531" stroke-miterlimit="10" cx="19.096" cy="31.044" r="1.498"/>
	</g>
	<g>
		<g>
			<path fill="#FFFFFF" stroke="#FFFFFF" stroke-width="0.2531" stroke-miterlimit="10" d="M46.492,34.174l-0.001,2.04v10.479
				l0.001,1.281v-0.436c0,1.573-1.282,2.853-2.854,2.853h-6.283h-1.747l-0.001,2.993l0.974,0.002l7.06-0.005
				c3.228,0.003,5.843-2.616,5.843-5.843v0.436v-1.282V34.817v-0.644H46.492z"/>
			<circle fill="#FFFFFF" stroke="#FFFFFF" stroke-width="0.2531" stroke-miterlimit="10" cx="47.984" cy="34.259" r="1.498"/>
		</g>
		<g>
			<path fill="#FFFFFF" stroke="#FFFFFF" stroke-width="0.2531" stroke-miterlimit="10" d="M25.396,34.174v0.644v11.874v1.282
				v-0.436c0,3.229,2.617,5.846,5.844,5.843l4.746,0.005l0.974-0.002l-0.001-2.993H35.21h-3.969c-1.573,0-2.854-1.279-2.854-2.853
				v0.436l0.001-1.282V36.212l-0.001-2.04h-2.99V34.174z"/>
			<circle fill="#FFFFFF" stroke="#FFFFFF" stroke-width="0.2531" stroke-miterlimit="10" cx="26.894" cy="34.259" r="1.498"/>
		</g>
	</g>
</g>
</svg>
